<svg width="20" height="21" viewBox="0 0 20 21" fill="none" xmlns="http://www.w3.org/2000/svg">
<path d="M18.6334 11.4566H4.36058L10.5961 17.9633C11.0945 18.4833 11.0945 19.3366 10.5961 19.8566C10.0978 20.3766 9.2928 20.3766 8.79447 19.8566L0.37391 11.07C-0.124423 10.55 -0.124423 9.70998 0.37391 9.18998L8.78169 0.389981C9.02042 0.140311 9.34453 0 9.68252 0C10.0205 0 10.3446 0.140311 10.5834 0.389981C11.0817 0.909981 11.0817 1.74998 10.5834 2.26998L4.36058 8.78998H18.6334C19.3361 8.78998 19.9111 9.38998 19.9111 10.1233C19.9111 10.8566 19.3361 11.4566 18.6334 11.4566Z" fill="#039DF8"/>
</svg>
