<svg width="20" height="21" viewBox="0 0 20 21" fill="none" xmlns="http://www.w3.org/2000/svg">
<path d="M1.27778 11.4566H15.5506L9.315 17.9633C8.81667 18.4833 8.81667 19.3366 9.315 19.8566C9.81333 20.3766 10.6183 20.3766 11.1167 19.8566L19.5372 11.07C20.0356 10.55 20.0356 9.70998 19.5372 9.18998L11.1294 0.389981C10.8907 0.140311 10.5666 0 10.2286 0C9.89062 0 9.56651 0.140311 9.32778 0.389981C8.82944 0.909981 8.82944 1.74998 9.32778 2.26998L15.5506 8.78998H1.27778C0.575 8.78998 0 9.38998 0 10.1233C0 10.8566 0.575 11.4566 1.27778 11.4566Z" fill="#039DF8"/>
</svg>
