<svg width="11" height="12" viewBox="0 0 11 12" fill="none" xmlns="http://www.w3.org/2000/svg">
<path d="M0.666761 4.94436H8.11343L4.8601 1.28436C4.6001 0.991864 4.6001 0.511864 4.8601 0.219364C4.98465 0.0789247 5.15375 0 5.33009 0C5.50644 0 5.67554 0.0789247 5.80009 0.219364L10.1934 5.16186C10.4534 5.45436 10.4534 5.92686 10.1934 6.21936L5.80009 11.1619C5.54009 11.4544 5.12009 11.4544 4.8601 11.1619C4.6001 10.8694 4.6001 10.3969 4.8601 10.1044L8.11343 6.44436H0.666761C0.300095 6.44436 9.44138e-05 6.10686 9.44138e-05 5.69436C9.44138e-05 5.28186 0.300095 4.94436 0.666761 4.94436Z" fill="#BBC8D4"/>
</svg>
