<svg width="102" height="21" viewBox="0 0 102 21" fill="none" xmlns="http://www.w3.org/2000/svg">
<g clip-path="url(#clip0)">
<path d="M10.5006 15.4614L14.0141 17.5707C14.6575 17.9572 15.4449 17.3858 15.2755 16.6631L14.3443 12.6967L17.4513 10.0245C18.0186 9.53706 17.7138 8.61269 16.9688 8.55387L12.8796 8.20933L11.2795 4.46143C10.9916 3.78076 10.0096 3.78076 9.72171 4.46143L8.12159 8.20093L4.03242 8.54547C3.28739 8.60429 2.98261 9.52866 3.54984 10.0161L6.65694 12.6883L5.72566 16.6547C5.55633 17.3774 6.34369 17.9488 6.98712 17.5623L10.5006 15.4614V15.4614Z" fill="#FFBB00"/>
<path d="M71.4573 15.4614L74.9707 17.5707C75.6142 17.9572 76.4015 17.3858 76.2322 16.6631L75.3009 12.6967L78.408 10.0245C78.9753 9.53706 78.6705 8.61269 77.9254 8.55387L73.8363 8.20933L72.2362 4.46143C71.9483 3.78076 70.9662 3.78076 70.6784 4.46143L69.0783 8.20093L64.9891 8.54547C64.2441 8.60429 63.9393 9.52866 64.5065 10.0161L67.6136 12.6883L66.6823 16.6547C66.513 17.3774 67.3004 17.9488 67.9438 17.5623L71.4573 15.4614V15.4614Z" fill="#FFBB00"/>
<path d="M51.1384 15.4614L54.6519 17.5707C55.2953 17.9572 56.0827 17.3858 55.9134 16.6631L54.9821 12.6967L58.0892 10.0245C58.6564 9.53706 58.3516 8.61269 57.6066 8.55387L53.5174 8.20933L51.9173 4.46143C51.6295 3.78076 50.6474 3.78076 50.3595 4.46143L48.7594 8.20093L44.6702 8.54547C43.9252 8.60429 43.6204 9.52866 44.1877 10.0161L47.2948 12.6883L46.3635 16.6547C46.1942 17.3774 46.9815 17.9488 47.6249 17.5623L51.1384 15.4614V15.4614Z" fill="#FFBB00"/>
<path d="M30.8196 15.4614L34.333 17.5707C34.9765 17.9572 35.7638 17.3858 35.5945 16.6631L34.6632 12.6967L37.7703 10.0245C38.3376 9.53706 38.0328 8.61269 37.2877 8.55387L33.1986 8.20933L31.5985 4.46143C31.3106 3.78076 30.3285 3.78076 30.0407 4.46143L28.4406 8.20093L24.3514 8.54547C23.6064 8.60429 23.3016 9.52866 23.8688 10.0161L26.9759 12.6883L26.0446 16.6547C25.8753 17.3774 26.6627 17.9488 27.3061 17.5623L30.8196 15.4614V15.4614Z" fill="#FFBB00"/>
<path d="M91.7761 15.4614L95.2896 17.5707C95.933 17.9572 96.7204 17.3858 96.551 16.6631L95.6198 12.6967L98.7269 10.0245C99.2941 9.53706 98.9893 8.61269 98.2443 8.55387L94.1551 8.20933L92.555 4.46143C92.2671 3.78076 91.2851 3.78076 90.9972 4.46143L89.3971 8.20093L85.3079 8.54547C84.5629 8.60429 84.2581 9.52866 84.8254 10.0161L87.9325 12.6883L87.0012 16.6547C86.8318 17.3774 87.6192 17.9488 88.2626 17.5623L91.7761 15.4614V15.4614Z" fill="#FFBB00"/>
</g>
<defs>
<clipPath id="clip0">
<rect width="101.594" height="20.1681" fill="white" transform="translate(0.341187 0.739136)"/>
</clipPath>
</defs>
</svg>
