<svg width="63" height="15" viewBox="0 0 63 15" fill="none" xmlns="http://www.w3.org/2000/svg">
<path d="M6.33789 5.58203H4.55078V10.6992C4.55078 11.1289 4.63542 11.4154 4.80469 11.5586C4.98047 11.7018 5.25391 11.7734 5.625 11.7734C5.80078 11.7734 5.95703 11.7669 6.09375 11.7539C6.23047 11.7409 6.34766 11.7246 6.44531 11.7051L6.43555 13.9316C6.19466 14.0098 5.93099 14.0716 5.64453 14.1172C5.36458 14.1693 5.04883 14.1953 4.69727 14.1953C3.74674 14.1953 2.99154 13.9512 2.43164 13.4629C1.87826 12.9746 1.60156 12.1641 1.60156 11.0312V5.58203H0.0976562V3.43359H1.60156V0.826172H4.55078V3.43359H6.33789V5.58203ZM15.7832 14.1953C14.6699 14.1953 13.7161 13.9642 12.9219 13.502C12.1341 13.0397 11.5286 12.4212 11.1055 11.6465C10.6888 10.8717 10.4805 10.0156 10.4805 9.07812V8.69727C10.4805 7.64258 10.679 6.70508 11.0762 5.88477C11.4798 5.06445 12.0527 4.41992 12.7949 3.95117C13.5371 3.47591 14.4225 3.23828 15.4512 3.23828C16.9811 3.23828 18.1465 3.71354 18.9473 4.66406C19.748 5.60807 20.1484 6.86458 20.1484 8.43359V9.68359H13.4785C13.5827 10.3281 13.8496 10.8457 14.2793 11.2363C14.7155 11.6204 15.2786 11.8125 15.9688 11.8125C16.4701 11.8125 16.9355 11.7214 17.3652 11.5391C17.8014 11.3503 18.1758 11.0573 18.4883 10.6602L19.9141 12.291C19.582 12.7663 19.0677 13.2025 18.3711 13.5996C17.6745 13.9967 16.8118 14.1953 15.7832 14.1953ZM15.4316 5.61133C14.8522 5.61133 14.4095 5.80664 14.1035 6.19727C13.7975 6.58138 13.5957 7.08268 13.498 7.70117H17.248V7.4668C17.2415 6.92643 17.0918 6.48372 16.7988 6.13867C16.5124 5.78711 16.0566 5.61133 15.4316 5.61133ZM30.3457 6.95898C30.3457 6.48372 30.2285 6.10612 29.9941 5.82617C29.7598 5.54622 29.3854 5.40625 28.8711 5.40625C28.4219 5.40625 28.0736 5.51367 27.8262 5.72852C27.5788 5.94336 27.4551 6.24284 27.4551 6.62695H24.5059C24.5059 6.00195 24.6914 5.43555 25.0625 4.92773C25.4336 4.41341 25.9577 4.00326 26.6348 3.69727C27.3118 3.39128 28.1094 3.23828 29.0273 3.23828C29.8477 3.23828 30.5801 3.37826 31.2246 3.6582C31.8691 3.93164 32.377 4.34505 32.748 4.89844C33.1191 5.45182 33.3047 6.14518 33.3047 6.97852V11.3926C33.3047 12.0176 33.3405 12.5124 33.4121 12.877C33.4902 13.2415 33.5977 13.5605 33.7344 13.834V14H30.7656C30.6484 13.7526 30.554 13.4434 30.4824 13.0723C30.209 13.3848 29.8574 13.6517 29.4277 13.873C29.0046 14.0879 28.4805 14.1953 27.8555 14.1953C27.1849 14.1953 26.5762 14.0618 26.0293 13.7949C25.4889 13.5215 25.0592 13.1471 24.7402 12.6719C24.4212 12.1901 24.2617 11.64 24.2617 11.0215C24.2617 9.91471 24.6719 9.05859 25.4922 8.45312C26.3125 7.84115 27.5332 7.53516 29.1543 7.53516H30.3457V6.95898ZM28.5098 11.959C28.9655 11.959 29.3496 11.8613 29.6621 11.666C29.9811 11.4642 30.209 11.2428 30.3457 11.002V9.23438H29.2422C28.526 9.23438 28.0085 9.39062 27.6895 9.70312C27.3704 10.0091 27.2109 10.3802 27.2109 10.8164C27.2109 11.1484 27.3281 11.4219 27.5625 11.6367C27.7969 11.8516 28.1126 11.959 28.5098 11.959ZM41.3633 14H38.4141V3.43359H41.1875L41.2852 4.58594C41.6302 4.16276 42.0534 3.83398 42.5547 3.59961C43.0625 3.35872 43.6419 3.23828 44.293 3.23828C44.918 3.23828 45.4714 3.36523 45.9531 3.61914C46.4349 3.87305 46.8092 4.27669 47.0762 4.83008C47.4147 4.33529 47.8444 3.94792 48.3652 3.66797C48.8926 3.38151 49.5111 3.23828 50.2207 3.23828C51.2363 3.23828 52.0534 3.54102 52.6719 4.14648C53.2904 4.75195 53.5996 5.80013 53.5996 7.29102V14H50.6309V7.28125C50.6309 6.60417 50.4974 6.16146 50.2305 5.95312C49.9635 5.73828 49.5957 5.63086 49.127 5.63086C48.7233 5.63086 48.3848 5.72852 48.1113 5.92383C47.8379 6.11914 47.6263 6.38281 47.4766 6.71484C47.4766 6.79297 47.4766 6.87109 47.4766 6.94922V14H44.5273V7.31055C44.5273 6.63346 44.3906 6.18424 44.1172 5.96289C43.8503 5.74154 43.4792 5.63086 43.0039 5.63086C42.6263 5.63086 42.3008 5.71224 42.0273 5.875C41.7539 6.03776 41.5326 6.26237 41.3633 6.54883V14Z" fill="white"/>
<path d="M58.875 12.5449C58.875 12.1022 59.0247 11.7311 59.3242 11.4316C59.6302 11.1322 60.0339 10.9824 60.5352 10.9824C61.0365 10.9824 61.4368 11.1322 61.7363 11.4316C62.0358 11.7311 62.1855 12.1022 62.1855 12.5449C62.1855 12.9876 62.0358 13.3587 61.7363 13.6582C61.4368 13.9577 61.0365 14.1074 60.5352 14.1074C60.0339 14.1074 59.6302 13.9577 59.3242 13.6582C59.0247 13.3587 58.875 12.9876 58.875 12.5449Z" fill="#039DF8"/>
</svg>
